<svg id="Icons" height="512" viewBox="0 0 74 74" width="512" xmlns="http://www.w3.org/2000/svg"><path d="m68 65.35h-21.06a1 1 0 0 1 0-2h21.06a2 2 0 0 0 2-2v-42a2 2 0 0 0 -2-2h-62a2 2 0 0 0 -2 2v42a2 2 0 0 0 2 2h24a1 1 0 0 1 0 2h-24a4 4 0 0 1 -4-4v-42a4 4 0 0 1 4-4h62a4 4 0 0 1 4 4v42a4 4 0 0 1 -4 4z"/><path d="m39.94 65.35h-2.94a1 1 0 0 1 0-2h2.94a1 1 0 1 1 0 2z"/><path d="m58.5 31.354a1 1 0 0 1 -1-1v-13h-4.5v13a1 1 0 0 1 -2 0v-14a1 1 0 0 1 1-1h6.5a1 1 0 0 1 1 1v14a1 1 0 0 1 -1 1z"/><path d="m58.5 65.354h-6.5a1 1 0 0 1 -1-1v-20a1 1 0 0 1 2 0v19h4.5v-19a1 1 0 0 1 2 0v20a1 1 0 0 1 -1 1z"/><path d="m60.75 45.354h-11a1 1 0 0 1 -1-1v-14a1 1 0 0 1 1-1h11a1 1 0 0 1 1 1v14a1 1 0 0 1 -1 1zm-10-2h9v-12h-9z"/><path d="m60.75 36.495h-11a1 1 0 0 1 0-2h11a1 1 0 0 1 0 2z"/><path d="m22 31.354a1 1 0 0 1 -1-1v-13h-4.5v13a1 1 0 0 1 -2 0v-14a1 1 0 0 1 1-1h6.5a1 1 0 0 1 1 1v14a1 1 0 0 1 -1 1z"/><path d="m22 65.354h-6.5a1 1 0 0 1 -1-1v-20a1 1 0 0 1 2 0v19h4.5v-19a1 1 0 0 1 2 0v20a1 1 0 0 1 -1 1z"/><path d="m24.25 45.354h-11a1 1 0 0 1 -1-1v-14a1 1 0 0 1 1-1h11a1 1 0 0 1 1 1v14a1 1 0 0 1 -1 1zm-10-2h9v-12h-9z"/><path d="m24.25 36.495h-11a1 1 0 0 1 0-2h11a1 1 0 0 1 0 2z"/><path d="m13.25 41.354h-2.25a9.011 9.011 0 0 1 -9-9 1 1 0 0 1 2 0 7.008 7.008 0 0 0 7 7h2.25a1 1 0 0 1 0 2z"/><path d="m63 41.354h-2.25a1 1 0 0 1 0-2h2.25a7.008 7.008 0 0 0 7-7 1 1 0 0 1 2 0 9.011 9.011 0 0 1 -9 9z"/><path d="m49.75 41.354h-25.5a1 1 0 0 1 0-2h25.5a1 1 0 0 1 0 2z"/><path d="m45.65 17.354h-17.3a1 1 0 0 1 -1-1v-4.091a3.621 3.621 0 0 1 3.617-3.617h12.066a3.621 3.621 0 0 1 3.617 3.617v4.091a1 1 0 0 1 -1 1zm-16.3-2h15.3v-3.091a1.618 1.618 0 0 0 -1.617-1.617h-12.066a1.618 1.618 0 0 0 -1.617 1.617z"/></svg>