<svg id="Layer_1" enable-background="new 0 0 512 512" height="512" viewBox="0 0 512 512" width="512" xmlns="http://www.w3.org/2000/svg"><g><g><path d="m402.55 30.354c-.781-6.403-2.058-11.487-3.901-15.539-1.994-4.511-4.387-7.908-7.315-10.385-.092-.078-.186-.154-.28-.229-3.501-2.748-7.735-4.201-12.248-4.201h-230.762c-10.78 0-20.061 3.294-27.585 9.792-7.954 6.869-11.987 17.497-11.987 31.587v443.962c0 5.079 1.623 9.76 4.694 13.539.066.081.133.161.202.241 2.927 3.378 7.174 6.105 12.29 7.892 4.399 1.649 9.992 2.842 17.579 3.753 6.819.818 15.301 1.233 25.21 1.233 10.218 0 18.794-.416 25.518-1.239 7.3-.913 12.988-2.137 17.388-3.744 5.943-2.115 10.123-4.891 12.776-8.486 2.809-3.764 4.293-8.323 4.293-13.189v-172.466h140.441c4.704 0 8.983-1.491 12.388-4.314 3.018-2.417 5.509-5.918 7.612-10.696.019-.044.038-.088.057-.132 1.7-4.019 2.869-8.833 3.679-15.15.739-5.765 1.114-12.536 1.114-20.125 0-7.675-.375-14.49-1.114-20.254-.819-6.39-2.026-11.167-3.798-15.034-.023-.05-.046-.1-.07-.149-2.286-4.777-4.846-8.027-8.033-10.188-3.351-2.462-7.434-3.761-11.835-3.761h-140.441v-10.858c0-5.523-4.477-10-10-10s-10 4.477-10 10v20.858c0 5.523 4.477 10 10 10h150.441c.068 0 .122.003.163.006.085.062.171.123.258.183.166.193.649.824 1.368 2.313.878 1.952 1.569 4.955 2.109 9.174.632 4.924.952 10.883.952 17.71 0 6.647-.329 12.726-.952 17.582-.559 4.36-1.29 7.581-2.235 9.84-.884 1.994-1.507 2.777-1.705 2.997h-150.399c-5.523 0-10 4.477-10 10v182.466c0 .67-.154.984-.266 1.15-.232.184-1.176.854-3.537 1.692-.033.012-.065.023-.098.035-2.925 1.072-7.312 1.979-13.012 2.692-5.894.722-13.653 1.088-23.061 1.088-9.116 0-16.796-.367-22.828-1.091-5.849-.702-10.227-1.594-13.012-2.65-.095-.036-.191-.071-.287-.104-2.305-.795-3.365-1.666-3.711-2-.067-.123-.137-.345-.137-.813v-443.963c0-8.017 1.702-13.552 5.059-16.45 3.895-3.363 8.506-4.929 14.513-4.929l230.659.004c.335.404.935 1.268 1.669 2.935.02.046.041.091.062.137.672 1.466 1.61 4.339 2.264 9.699.559 4.586.831 10.484.831 18.031 0 7.572-.271 13.418-.827 17.871-.633 5.061-1.559 7.899-2.235 9.402-1.079 2.239-1.829 3.089-2.007 3.275h-160.039c-5.523 0-10 4.477-10 10v20.858c0 5.523 4.477 10 10 10s10-4.477 10-10v-10.858h150.384c4.616 0 8.964-1.636 12.527-4.689 2.726-2.305 5.085-5.587 7.212-10.034.024-.05.048-.101.071-.151 1.865-4.07 3.15-9.081 3.931-15.323.669-5.359.981-11.825.981-20.351 0-8.364-.32-15.053-.978-20.452z"/><path d="m218.429 147.212h-.007c-5.523 0-9.996 4.477-9.996 10s4.48 10 10.003 10 10-4.477 10-10-4.477-10-10-10z"/></g></g></svg>